<svg width="17" height="21" viewBox="0 0 17 21" fill="none" xmlns="http://www.w3.org/2000/svg">
<path d="M11 8.20488L8.92567 10L7 6.38888L7.99481 4.31264C8.24633 3.8982 8.65774 3.89338 8.90925 4.31264L11 8.20488Z" fill="#FFA000"/>
<path d="M9 9.84906L0 17L6.76679 6L9 9.84906Z" fill="#F57F17"/>
<path d="M13.744 4.21092C14.1658 3.84378 14.6004 3.96825 14.7103 4.48852L17 16.6489L9.40499 20.8111C9.13815 20.9472 8.43182 21 8.43182 21C8.43182 21 7.78925 20.9284 7.54302 20.8048L0 16.7501L13.744 4.21092Z" fill="#FFCA28"/>
<path d="M7 5.65801L0 17L3.11941 0.421414C3.23659 -0.0924452 3.57881 -0.144537 3.88681 0.310166L7 5.65801Z" fill="#FFA000"/>
</svg>
