<svg width="20" height="21" viewBox="0 0 20 21" fill="none" xmlns="http://www.w3.org/2000/svg">
<path d="M0 4.18919L1.82013 18.5792L9.98762 20.1287L18.1778 18.6085L20 4.18919H0ZM16.2141 7.46523L16.1 8.39886L16.0498 8.83015H6.46891L6.6978 10.7506H15.8221L15.7611 11.1076L15.1725 15.734L15.1293 16.0044L10 16.9861V16.9853L9.99392 16.9872L4.86755 16.0405L4.51959 13.3111H7.03315L7.21118 14.665L9.99865 15.1673L10 15.1299V15.1318L12.7935 14.7079L13.0852 12.5109H4.40773L3.7924 7.57613L3.7323 7.06979H16.274L16.2141 7.46523ZM1.88765 0.128662H3.15298V1.01781H4.31073V0.128662H5.57629V2.82074H4.31073V1.91927H3.1532V2.82074H1.88765V0.128662ZM7.24021 1.02149H6.12613V0.128662H9.62031V1.02149H8.50577V2.82074H7.24021V1.02149ZM10.1749 0.128662H11.4942L12.306 1.07462L13.117 0.128662H14.437V2.82074H13.1764V1.48638L12.306 2.44354H12.284L11.413 1.48638V2.82074H10.1747L10.1749 0.128662ZM15.067 0.128662H16.3327V1.93096H18.1124V2.8209H15.067V0.128662Z" fill="#E44D26"/>
</svg>
