<svg width="20" height="20" viewBox="0 0 20 20" fill="none" xmlns="http://www.w3.org/2000/svg">
<path d="M0 0V20H20V0H0ZM10.579 17.0421C10.2838 17.6419 9.72032 18.036 9.06736 18.2262C8.064 18.4566 7.10432 18.3253 6.3904 17.8968C5.91264 17.6037 5.53952 17.1525 5.28624 16.6326L6.80944 15.6998C6.82272 15.7054 6.86272 15.7778 6.91616 15.8712C7.1104 16.1966 7.27792 16.427 7.6072 16.5888C7.93072 16.6992 8.64096 16.7698 8.9152 16.2005C9.08272 15.9109 9.02944 14.98 9.02944 13.9501C9.02928 12.3317 9.0368 10.72 9.0368 9.12H10.9102C10.9102 10.88 10.9198 12.5469 10.9102 14.2643C10.9142 15.3171 11.0056 16.2557 10.579 17.0421ZM18.3509 16.5128C17.6997 18.7403 14.069 18.8126 12.6181 17.341C12.3115 16.9946 12.1194 16.8136 11.9365 16.4138C12.7075 15.9702 12.7075 15.9702 13.4578 15.5362C13.8653 16.1626 14.2421 16.507 14.92 16.648C15.8397 16.7603 16.765 16.4443 16.5574 15.4675C16.3442 14.6698 14.6742 14.4757 13.5378 13.6226C12.384 12.8477 12.1136 10.9648 13.0618 9.88896C13.3778 9.49104 13.9166 9.19408 14.4821 9.05136L15.0722 8.97504C16.2051 8.95216 16.9133 9.25136 17.4331 9.83184C17.5778 9.9784 17.6958 10.1365 17.9166 10.479C17.3131 10.8637 17.315 10.86 16.4506 11.4197C16.2659 11.0219 15.9595 10.7723 15.6357 10.6638C15.133 10.5115 14.499 10.6771 14.3675 11.2083C14.3219 11.372 14.3314 11.5243 14.4038 11.7947C14.6075 12.2592 15.291 12.4611 15.9042 12.7429C17.6691 13.4587 18.2651 14.2262 18.4117 15.1398C18.5528 15.9264 18.3776 16.4366 18.3509 16.5128Z" fill="#EFDB50"/>
</svg>
