<svg width="24" height="20" viewBox="0 0 24 20" fill="none" xmlns="http://www.w3.org/2000/svg">
<path d="M11.6425 12.0393C12.8134 12.0393 13.7627 11.1263 13.7627 9.99999C13.7627 8.87368 12.8134 7.96063 11.6425 7.96063C10.4715 7.96063 9.52228 8.87368 9.52228 9.99999C9.52228 11.1263 10.4715 12.0393 11.6425 12.0393Z" fill="#61DAFB"/>
<path d="M19.6956 6.63685C19.2864 6.49374 18.8586 6.35063 18.4123 6.2254C18.5239 5.79606 18.6169 5.36673 18.6913 4.95528C19.0818 2.59392 18.6541 0.930232 17.4638 0.286225C17.1104 0.0894453 16.7198 0 16.2735 0C14.9716 0 13.3164 0.930232 11.6425 2.48658C9.96867 0.930232 8.31342 0 7.01154 0C6.56519 0 6.17462 0.0894453 5.82126 0.286225C4.63097 0.948121 4.20321 2.61181 4.59377 4.95528C4.66816 5.36673 4.76116 5.79606 4.87275 6.2254C4.42639 6.35063 3.99863 6.47585 3.58946 6.63685C1.26468 7.49553 0 8.67621 0 10C0 11.3238 1.28328 12.5045 3.58946 13.3631C3.99863 13.5063 4.42639 13.6494 4.87275 13.7746C4.76116 14.2039 4.66816 14.6333 4.59377 15.0447C4.20321 17.4061 4.63097 19.0698 5.82126 19.7138C6.17462 19.9106 6.56519 20 7.01154 20C8.33202 20 9.98727 19.0698 11.6425 17.5134C13.3164 19.0698 14.9716 20 16.2735 20C16.7198 20 17.1104 19.9106 17.4638 19.7138C18.6541 19.0519 19.0818 17.3882 18.6913 15.0447C18.6169 14.6333 18.5239 14.2039 18.4123 13.7746C18.8586 13.6494 19.2864 13.5242 19.6956 13.3631C22.0203 12.5045 23.285 11.3238 23.285 10C23.285 8.67621 22.0203 7.49553 19.6956 6.63685ZM16.943 1.18068C17.7055 1.61002 17.9659 2.93381 17.6498 4.81216C17.594 5.18784 17.501 5.5814 17.3894 5.99284C16.4223 5.77817 15.3994 5.63506 14.3207 5.54562C13.6883 4.68694 13.0374 3.91771 12.3864 3.22004C13.7627 1.91413 15.1576 1.01968 16.2921 1.01968C16.5339 1.01968 16.757 1.07335 16.943 1.18068ZM14.86 11.7889C14.5252 12.3614 14.1347 12.9338 13.7255 13.5063C13.0374 13.5599 12.3492 13.5778 11.6425 13.5778C10.9172 13.5778 10.229 13.5599 9.55951 13.5063C9.15034 12.9338 8.77838 12.3614 8.44361 11.7889C8.09024 11.1986 7.75548 10.5903 7.4579 10C7.75548 9.40966 8.09024 8.80143 8.44361 8.21109C8.77838 7.63864 9.16894 7.06619 9.5781 6.49374C10.2662 6.44007 10.9544 6.42218 11.6611 6.42218C12.3864 6.42218 13.0746 6.44007 13.7441 6.49374C14.1533 7.06619 14.5252 7.63864 14.86 8.21109C15.2134 8.80143 15.5481 9.40966 15.8457 10C15.5295 10.5903 15.2134 11.1807 14.86 11.7889ZM16.4037 11.1986C16.6826 11.8247 16.9058 12.4329 17.1104 13.0411C16.4781 13.1843 15.8085 13.2916 15.1018 13.381C15.325 13.0411 15.5667 12.6834 15.7713 12.3077C15.9945 11.932 16.1991 11.5563 16.4037 11.1986ZM11.6425 16.0465C11.1962 15.5814 10.7684 15.0805 10.3592 14.5617C10.787 14.5796 11.2148 14.5975 11.6425 14.5975C12.0703 14.5975 12.498 14.5796 12.9258 14.5617C12.5166 15.0805 12.0889 15.5814 11.6425 16.0465ZM8.18324 13.3631C7.4765 13.2737 6.80696 13.1664 6.17462 13.0233C6.3792 12.4329 6.60238 11.8068 6.88136 11.1807C7.08594 11.5385 7.29052 11.9141 7.5137 12.2719C7.73688 12.6655 7.96006 13.0054 8.18324 13.3631ZM6.88136 8.80143C6.60238 8.17531 6.3792 7.56708 6.17462 6.95886C6.80696 6.81574 7.4765 6.70841 8.18324 6.61896C7.96006 6.95885 7.71828 7.31664 7.5137 7.69231C7.29052 8.06798 7.08594 8.44365 6.88136 8.80143ZM11.6425 3.95349C12.0889 4.4186 12.5166 4.9195 12.9258 5.43828C12.498 5.42039 12.0703 5.4025 11.6425 5.4025C11.2148 5.4025 10.787 5.42039 10.3592 5.43828C10.7684 4.9195 11.1962 4.4186 11.6425 3.95349ZM15.7713 7.7102L15.1018 6.63685C15.8085 6.7263 16.4781 6.83363 17.1104 6.97674C16.9058 7.56708 16.6826 8.1932 16.4037 8.81932C16.1991 8.44365 15.9945 8.06798 15.7713 7.7102ZM5.63527 4.81216C5.3191 2.93381 5.57948 1.61002 6.34201 1.18068C6.52799 1.07335 6.75117 1.01968 6.99295 1.01968C8.10884 1.01968 9.50371 1.89624 10.8986 3.22004C10.2476 3.89982 9.5967 4.68694 8.96436 5.54562C7.88566 5.63506 6.86276 5.79606 5.89565 5.99284C5.78406 5.5814 5.70967 5.18784 5.63527 4.81216ZM1.0415 10C1.0415 9.15921 2.1016 8.26476 3.96143 7.60286C4.3334 7.45975 4.74256 7.33453 5.15172 7.22719C5.44929 8.12165 5.82126 9.06977 6.26761 10.0179C5.82126 10.966 5.43069 11.8962 5.15172 12.7907C2.58516 12.0751 1.0415 11.0018 1.0415 10ZM6.34201 18.8193C5.57948 18.39 5.3191 17.0662 5.63527 15.1878C5.69107 14.8122 5.78406 14.4186 5.89565 14.0072C6.86276 14.2218 7.88566 14.3649 8.96436 14.4544C9.5967 15.3131 10.2476 16.0823 10.8986 16.78C9.52231 18.0859 8.12744 18.9803 6.99295 18.9803C6.75117 18.9803 6.52799 18.9267 6.34201 18.8193ZM17.6498 15.1878C17.9659 17.0662 17.7055 18.39 16.943 18.8193C16.757 18.9267 16.5339 18.9803 16.2921 18.9803C15.1762 18.9803 13.7813 18.1038 12.3864 16.78C13.0374 16.1002 13.6883 15.3131 14.3207 14.4544C15.3994 14.3649 16.4223 14.2039 17.3894 14.0072C17.501 14.4186 17.5754 14.8122 17.6498 15.1878ZM19.3236 12.3971C18.9516 12.5403 18.5425 12.6655 18.1333 12.7728C17.8357 11.8784 17.4638 10.9302 17.0174 9.98211C17.4638 9.03399 17.8543 8.10376 18.1333 7.2093C20.6999 7.92487 22.2435 8.99821 22.2435 10C22.2435 10.8408 21.1648 11.7352 19.3236 12.3971Z" fill="#61DAFB"/>
</svg>
