<svg width="20" height="20" viewBox="0 0 20 20" fill="none" xmlns="http://www.w3.org/2000/svg">
<path d="M16.5 5.85815C15.7501 5.4285 15.0881 4.65599 14.59 3.6292C14.041 2.48517 13.3421 1.56515 12.5465 0.939524C11.7509 0.313899 10.8799 -0.000756548 10 0.0196275C8.81637 -0.119806 7.64458 0.487449 6.71801 1.72046C5.79143 2.95347 5.17804 4.72177 5 6.67321C5.35067 5.6972 5.87845 4.93141 6.50739 4.48604C7.13633 4.04067 7.834 3.93868 8.5 4.19475C9.24869 4.63689 9.90958 5.4139 10.41 6.44033C10.962 7.57523 11.6623 8.48574 12.4577 9.10258C13.2531 9.71943 14.1226 10.0264 15 10C16.1836 10.1394 17.3554 9.53218 18.282 8.29917C19.2086 7.06615 19.822 5.29786 20 3.34642C19.6557 4.3341 19.1296 5.11145 18.4994 5.56373C17.8691 6.016 17.1682 6.11922 16.5 5.85815ZM3.5 14.1419C4.24995 14.5715 4.91192 15.344 5.41 16.3708C5.95895 17.5148 6.65794 18.4349 7.4535 19.0605C8.24906 19.6861 9.1201 20.0008 10 19.9804C11.1836 20.1198 12.3554 19.5126 13.282 18.2795C14.2086 17.0465 14.822 15.2782 15 13.3268C14.6493 14.3028 14.1215 15.0686 13.4926 15.514C12.8637 15.9593 12.166 16.0613 11.5 15.8053C10.7513 15.3631 10.0904 14.5861 9.59 13.5597C9.03656 12.4276 8.33595 11.5191 7.54091 10.9025C6.74587 10.2859 5.8771 9.97734 5 10C3.81637 9.86057 2.64458 10.4678 1.71801 11.7008C0.791428 12.9338 0.178042 14.7021 0 16.6536C0.344307 15.6659 0.870408 14.8885 1.50063 14.4363C2.13086 13.984 2.83181 13.8808 3.5 14.1419Z" fill="#38BCF9"/>
</svg>
